<mxfile host="app.diagrams.net" agent="Mozilla/5.0 (Windows NT 10.0; Win64; x64) AppleWebKit/537.36 (KHTML, like Gecko) Chrome/138.0.0.0 Safari/537.36" version="28.0.6">
  <diagram name="Page-1" id="g_hoSG60dnSQHAl3ZSL4">
    <mxGraphModel dx="1164" dy="654" grid="1" gridSize="10" guides="1" tooltips="1" connect="1" arrows="1" fold="1" page="1" pageScale="1" pageWidth="850" pageHeight="1100" math="0" shadow="0">
      <root>
        <mxCell id="0" />
        <mxCell id="1" parent="0" />
        <mxCell id="gyM2tLlO4-hLkeZSAbmE-3" value="Buat Appointment" style="text;html=1;align=center;verticalAlign=middle;whiteSpace=wrap;rounded=0;" vertex="1" parent="1">
          <mxGeometry x="340" y="10" width="225" height="30" as="geometry" />
        </mxCell>
        <mxCell id="gyM2tLlO4-hLkeZSAbmE-17" value="" style="edgeStyle=orthogonalEdgeStyle;rounded=0;orthogonalLoop=1;jettySize=auto;html=1;" edge="1" parent="1" source="gyM2tLlO4-hLkeZSAbmE-11" target="gyM2tLlO4-hLkeZSAbmE-16">
          <mxGeometry relative="1" as="geometry" />
        </mxCell>
        <mxCell id="gyM2tLlO4-hLkeZSAbmE-11" value="Pilih Dokter (Umum spesialis)" style="rounded=1;whiteSpace=wrap;html=1;" vertex="1" parent="1">
          <mxGeometry x="300" y="100" width="120" height="60" as="geometry" />
        </mxCell>
        <mxCell id="gyM2tLlO4-hLkeZSAbmE-13" value="" style="endArrow=none;html=1;rounded=0;" edge="1" parent="1">
          <mxGeometry width="50" height="50" relative="1" as="geometry">
            <mxPoint x="450" y="760" as="sourcePoint" />
            <mxPoint x="450" y="55" as="targetPoint" />
          </mxGeometry>
        </mxCell>
        <mxCell id="gyM2tLlO4-hLkeZSAbmE-14" value="Customer" style="text;html=1;align=center;verticalAlign=middle;whiteSpace=wrap;rounded=0;" vertex="1" parent="1">
          <mxGeometry x="287.5" y="50" width="150" height="30" as="geometry" />
        </mxCell>
        <mxCell id="gyM2tLlO4-hLkeZSAbmE-15" value="Server" style="text;html=1;align=center;verticalAlign=middle;whiteSpace=wrap;rounded=0;" vertex="1" parent="1">
          <mxGeometry x="490" y="50" width="150" height="30" as="geometry" />
        </mxCell>
        <mxCell id="gyM2tLlO4-hLkeZSAbmE-19" value="" style="edgeStyle=orthogonalEdgeStyle;rounded=0;orthogonalLoop=1;jettySize=auto;html=1;" edge="1" parent="1" source="gyM2tLlO4-hLkeZSAbmE-16" target="gyM2tLlO4-hLkeZSAbmE-18">
          <mxGeometry relative="1" as="geometry">
            <Array as="points">
              <mxPoint x="565" y="280" />
              <mxPoint x="360" y="280" />
            </Array>
          </mxGeometry>
        </mxCell>
        <mxCell id="gyM2tLlO4-hLkeZSAbmE-16" value="Mengembalikan waktu appointment dokter" style="whiteSpace=wrap;html=1;rounded=1;" vertex="1" parent="1">
          <mxGeometry x="505" y="170" width="120" height="60" as="geometry" />
        </mxCell>
        <mxCell id="gyM2tLlO4-hLkeZSAbmE-21" value="" style="edgeStyle=orthogonalEdgeStyle;rounded=0;orthogonalLoop=1;jettySize=auto;html=1;" edge="1" parent="1" source="gyM2tLlO4-hLkeZSAbmE-18" target="gyM2tLlO4-hLkeZSAbmE-20">
          <mxGeometry relative="1" as="geometry">
            <Array as="points">
              <mxPoint x="360" y="380" />
            </Array>
          </mxGeometry>
        </mxCell>
        <mxCell id="gyM2tLlO4-hLkeZSAbmE-18" value="Pilih waktu appointment" style="whiteSpace=wrap;html=1;rounded=1;" vertex="1" parent="1">
          <mxGeometry x="300" y="260" width="120" height="60" as="geometry" />
        </mxCell>
        <mxCell id="gyM2tLlO4-hLkeZSAbmE-23" value="" style="edgeStyle=orthogonalEdgeStyle;rounded=0;orthogonalLoop=1;jettySize=auto;html=1;" edge="1" parent="1" source="gyM2tLlO4-hLkeZSAbmE-20" target="gyM2tLlO4-hLkeZSAbmE-22">
          <mxGeometry relative="1" as="geometry" />
        </mxCell>
        <mxCell id="gyM2tLlO4-hLkeZSAbmE-20" value="Menerbitkan Tagihan via API Gateway dan melakukan lock atas appointment dan dokter selama 5 menit" style="whiteSpace=wrap;html=1;rounded=1;" vertex="1" parent="1">
          <mxGeometry x="472.5" y="340" width="207.5" height="100" as="geometry" />
        </mxCell>
        <mxCell id="gyM2tLlO4-hLkeZSAbmE-25" value="" style="edgeStyle=orthogonalEdgeStyle;rounded=0;orthogonalLoop=1;jettySize=auto;html=1;" edge="1" parent="1" source="gyM2tLlO4-hLkeZSAbmE-22" target="gyM2tLlO4-hLkeZSAbmE-24">
          <mxGeometry relative="1" as="geometry" />
        </mxCell>
        <mxCell id="gyM2tLlO4-hLkeZSAbmE-22" value="Mengembalikan url atau nomor virtual account" style="whiteSpace=wrap;html=1;rounded=1;" vertex="1" parent="1">
          <mxGeometry x="483.75" y="480" width="185" height="100" as="geometry" />
        </mxCell>
        <mxCell id="gyM2tLlO4-hLkeZSAbmE-24" value="Melakukan pembayaran" style="whiteSpace=wrap;html=1;rounded=1;" vertex="1" parent="1">
          <mxGeometry x="287.5" y="480" width="130" height="100" as="geometry" />
        </mxCell>
      </root>
    </mxGraphModel>
  </diagram>
</mxfile>
